<svg xmlns="http://www.w3.org/2000/svg" class="nativelab nativelab-discord" width="24" height="24" viewBox="0 0 24 24" fill="none" stroke="currentColor" stroke-width="1.8" stroke-linecap="round" stroke-linejoin="round">
  <path d="M8.2 7.2c1.1-.5 2.4-.8 3.8-.8s2.7.3 3.8.8" />
  <path d="M7.1 8.1c-1.2 1.8-1.8 3.8-1.9 6.1 1.5 1.2 3 1.9 4.5 2.2l.8-1.4" />
  <path d="M16.9 8.1c1.2 1.8 1.8 3.8 1.9 6.1-1.5 1.2-3 1.9-4.5 2.2l-.8-1.4" />
  <path d="M8.8 14.1c1 .7 2.1 1 3.2 1s2.2-.3 3.2-1" />
  <circle cx="9.8" cy="11.8" r=".8" fill="currentColor" stroke="none" />
  <circle cx="14.2" cy="11.8" r=".8" fill="currentColor" stroke="none" />
</svg>
