<svg xmlns="http://www.w3.org/2000/svg" class="nativelab nativelab-whatsapp" width="24" height="24" viewBox="0 0 24 24" fill="none" stroke="currentColor" stroke-width="1.8" stroke-linecap="round" stroke-linejoin="round">
  <path d="M7.4 19.2 4 20l.9-3.2A8.2 8.2 0 1 1 7.4 19.2z" />
  <path d="M8.7 8.6c.2-.5.4-.6.7-.6h.5c.2 0 .4.1.5.4l.7 1.6c.1.3.1.5-.1.7l-.5.6c.7 1.3 1.7 2.3 3.1 3l.6-.5c.2-.2.4-.2.7-.1l1.5.7c.3.1.4.3.4.6v.5c0 .4-.2.6-.6.8-.7.3-1.6.3-2.7-.1-2.8-1-5-3.1-6-6-.3-1-.3-1.9.2-2.6z" />
</svg>
